<?xml version="1.0" encoding="utf-8"?>
<!-- Generator: Adobe Illustrator 19.0.0, SVG Export Plug-In . SVG Version: 6.00 Build 0)  -->
<svg version="1.1" id="Layer_2" xmlns="http://www.w3.org/2000/svg" xmlns:xlink="http://www.w3.org/1999/xlink" x="0px" y="0px"
	 width="100px" height="100px" viewBox="-247 370.9 100 100" style="enable-background:new -247 370.9 100 100;"
	 xml:space="preserve">
<g>
	<path d="M-148,412.8c-0.7-2.2-2.6-4.1-5.4-4.1h-6.4c-0.6-1.9-1.4-3.8-2.3-5.6l4.9-4.9c1-1,1.5-2.3,1.5-3.6s-0.5-2.6-1.5-3.6l-10-10
		c-2-2-5.2-2-7.3,0l-5,5c-1.6-0.8-3.4-1.5-5.6-2.2v-6.6c0-3.1-2.5-5.6-5.6-5.6h-12.8c-3.1,0-5.6,2.5-5.6,5.6v6.6
		c-1.9,0.6-3.7,1.4-5.5,2.3l-5-5.1c-2-2-5.2-2-7.2,0l-10,10c-1,1-1.5,2.3-1.5,3.6s0.5,2.6,1.5,3.6l4.8,4.8c-0.9,1.8-1.7,3.7-2.3,5.6
		h-6.4c-3.1,0-5.6,2.5-5.6,5.6v13c0,3.1,2.5,5.6,5.6,5.6h6.5c0.6,1.9,1.4,3.8,2.3,5.7l-4.9,4.9c-1,1-1.5,2.3-1.5,3.6
		c0,1.5,0.6,2.8,1.6,3.7l9.9,9.9c1.9,1.9,5.1,1.9,7.1,0.1l4.9-4.9c1.7,0.9,3.7,1.8,5.8,2.4v6.2c0,3.1,2.5,5.6,5.6,5.6h13
		c3.1,0,5.6-2.5,5.6-5.6v-6.2c2.3-0.8,4.2-1.5,5.8-2.3l4.8,4.8c1,1,2.3,1.5,3.6,1.5s2.6-0.5,3.6-1.5l10-10c1-1,1.5-2.3,1.5-3.6
		s-0.5-2.6-1.5-3.6l-4.9-4.9c0.9-1.7,1.7-3.6,2.3-5.7h6.4c3.1,0,5.6-2.5,5.6-5.6v-14L-148,412.8z M-152.5,427.3
		c0,0.4-0.3,0.6-0.6,0.6h-9.3l-1.4,1.4l-0.2,0.7c-0.6,2.9-1.9,5.4-3.1,7.7l-0.3,0.6v0.6c0,0.8,0.3,1.5,0.8,2.1l6,6
		c0.1,0.1,0.1,0.1,0,0.2l-10,10c0,0-0.1,0-0.2,0l-6.8-6.8h-1c-0.5,0-1,0.1-1.6,0.4c-2,1.1-4.4,2.1-7.6,3.1c-0.7,0.2-1.2,0.6-1.4,0.8
		l-0.7,0.7v9c0,0.4-0.3,0.6-0.6,0.6h-13c-0.4,0-0.6-0.3-0.6-0.6v-9l-1.4-1.4l-0.7-0.2c-2.4-0.5-4.6-1.5-6.6-2.5l0-0.2l-1.5-0.6
		c-1-0.4-2.1-0.2-2.8,0.6l-6,6c-0.1,0-0.2,0.1-0.3,0.1l-10.1-10.1c0,0,0-0.1,0.1-0.1l6.9-6.9v-1c0-0.6-0.2-1.1-0.5-1.6
		c-1.3-2.5-2.3-5-3.1-7.7l-0.2-0.6l-1.3-1.3h-9.3c-0.4,0-0.6-0.3-0.6-0.6v-13c0-0.4,0.3-0.6,0.6-0.6h9.3l1.3-1.3l0.2-0.7
		c0.6-2.1,1.4-4.4,2.5-6.5l0.3,0l0.6-1.5c0.4-1,0.2-2.1-0.6-2.8l-6.2-6.2c0,0,0-0.1,0-0.2l10-10c0.1-0.1,0.1-0.1,0.2,0l7,7.1h1
		c0.6,0,1.2-0.2,1.6-0.5c1.7-1,4.3-2.2,7.3-3l0.7-0.2l1.3-1.3v-9.4c0-0.4,0.3-0.6,0.6-0.6h12.8c0.4,0,0.6,0.3,0.6,0.6v9.4l1.3,1.3
		l0.6,0.2c3.3,1,5.7,2,7.7,3.1l0.6,0.3h0.7c0.8,0,1.6-0.3,2.1-0.8l6.2-6.2c0.1-0.1,0.1-0.1,0.2,0l10,10c0,0,0,0.1,0,0.2l-6.9,6.9v1
		c0,0.5,0.1,1,0.4,1.5l0.1,0.1c1,1.7,2.3,4.3,3.1,7.5l0.2,0.7l1.3,1.3h9.3c0.3,0,0.6,0.5,0.7,0.8l0.1,0.8l0.1,0.1V427.3z"/>
	<path d="M-195.6,400.9l-1.3,0c-5.5,0-10.5,2.1-14.3,5.8c-4.1,4-6.3,9.7-5.9,15.5c0.7,9.9,8.9,18.2,18.8,18.8c0.5,0,0.9,0,1.4,0
		c5.3,0,10.4-2.1,14.1-5.9l0,0c4-4.2,6.2-9.8,5.9-15.5C-177.4,409.8-185.7,401.5-195.6,400.9z M-186.3,431.7
		c-3.1,3.1-7.3,4.7-11.6,4.4c-7.4-0.5-13.7-6.7-14.2-14.2c-0.3-4.4,1.3-8.6,4.4-11.6c2.9-2.9,6.6-4.4,10.8-4.4h1.1
		c7.4,0.5,13.6,6.7,14.1,14.1C-181.6,424.2-183.2,428.5-186.3,431.7z"/>
</g>
</svg>
